<svg width="52" height="52" viewBox="0 0 52 52" fill="none" xmlns="http://www.w3.org/2000/svg">
<rect x="8" y="17" width="12" height="39" rx="6" transform="rotate(-90 8 17)" fill="url(#paint0_linear_1_33)" fill-opacity="0.4"/>
<rect x="5" y="17" width="12" height="33" rx="6" transform="rotate(-90 5 17)" fill="url(#paint1_linear_1_33)" fill-opacity="0.4"/>
<rect x="11" y="17" width="12" height="32" rx="6" transform="rotate(-90 11 17)" fill="url(#paint2_linear_1_33)" fill-opacity="0.4"/>
<rect x="11" y="33" width="12" height="25" rx="6" transform="rotate(-90 11 33)" fill="url(#paint3_linear_1_33)" fill-opacity="0.4"/>
<rect x="8" y="33" width="12" height="25" rx="6" transform="rotate(-90 8 33)" fill="url(#paint4_linear_1_33)" fill-opacity="0.4"/>
<rect x="11" y="1" width="12" height="50" rx="6" fill="url(#paint5_linear_1_33)" fill-opacity="0.4"/>
<rect x="11" y="12" width="12" height="36" rx="6" fill="url(#paint6_linear_1_33)" fill-opacity="0.4"/>
<rect x="11" y="5" width="12" height="39" rx="6" fill="url(#paint7_linear_1_33)" fill-opacity="0.4"/>
<defs>
<linearGradient id="paint0_linear_1_33" x1="14" y1="17" x2="14" y2="56" gradientUnits="userSpaceOnUse">
<stop stop-color="#1E40AF"/>
<stop offset="1" stop-color="#2563EB"/>
</linearGradient>
<linearGradient id="paint1_linear_1_33" x1="11" y1="17" x2="11" y2="50" gradientUnits="userSpaceOnUse">
<stop stop-color="#1E40AF"/>
<stop offset="1" stop-color="#2563EB"/>
</linearGradient>
<linearGradient id="paint2_linear_1_33" x1="17" y1="17" x2="17" y2="49" gradientUnits="userSpaceOnUse">
<stop stop-color="#1E40AF"/>
<stop offset="1" stop-color="#2563EB"/>
</linearGradient>
<linearGradient id="paint3_linear_1_33" x1="17" y1="33" x2="17" y2="58" gradientUnits="userSpaceOnUse">
<stop stop-color="#1E40AF"/>
<stop offset="1" stop-color="#2563EB"/>
</linearGradient>
<linearGradient id="paint4_linear_1_33" x1="14" y1="33" x2="14" y2="58" gradientUnits="userSpaceOnUse">
<stop stop-color="#1E40AF"/>
<stop offset="1" stop-color="#2563EB"/>
</linearGradient>
<linearGradient id="paint5_linear_1_33" x1="17" y1="1" x2="17" y2="51" gradientUnits="userSpaceOnUse">
<stop stop-color="#1E40AF"/>
<stop offset="1" stop-color="#2563EB"/>
</linearGradient>
<linearGradient id="paint6_linear_1_33" x1="17" y1="12" x2="17" y2="48" gradientUnits="userSpaceOnUse">
<stop stop-color="#1E40AF"/>
<stop offset="1" stop-color="#2563EB"/>
</linearGradient>
<linearGradient id="paint7_linear_1_33" x1="17" y1="5" x2="17" y2="44" gradientUnits="userSpaceOnUse">
<stop stop-color="#1E40AF"/>
<stop offset="1" stop-color="#2563EB"/>
</linearGradient>
</defs>
</svg>
